<svg xmlns="http://www.w3.org/2000/svg" viewBox="0 0 290.36 256.13"><defs><style>.cls-1{fill:#003ca5;}.cls-2{fill:#ffc845;}.cls-3{fill:#00a3e0;}</style></defs><g id="Ebene_2" data-name="Ebene 2"><g id="Ebene_1-2" data-name="Ebene 1"><g id="Logo"><path class="cls-1" d="M33.79,112.7A19.47,19.47,0,1,1,19,106.43c.21,0,.41,0,.62,0A19,19,0,0,1,33.79,112.7Zm-26,13.2c0,6.94,5,12.25,11.47,12.25s11.47-5.31,11.47-12.08c0-7.22-4.81-12.53-11.41-12.53S7.83,118.8,7.83,125.9Z"/><path class="cls-1" d="M52.52,144.47H44.86V107.16H56.77c8.84,0,13.82,4.31,13.82,11.92,0,7.77-5.09,12.58-13.31,12.58H52.52Zm3.3-19.13c4.42,0,7-2.12,7-5.87s-2.63-6-6.83-6H52.52v11.86Z"/><path class="cls-1" d="M84.58,122.6H97.67v6.26H84.58v9.35H97.67v6.26H76.91V107.16H97.66v6.27H84.58Z"/><path class="cls-1" d="M136.26,139.55c-4.31,4-8.34,5.65-13.87,5.65s-10.07-1.9-13.37-5.6a20.67,20.67,0,0,1-5-13.7c0-11.36,7.72-19.47,18.52-19.47,5.76,0,9.67,1.63,14.09,5.93l-5,5c-3-2.74-5.59-3.86-8.72-3.86-6.55,0-11.13,5-11.13,12.19s4.8,12.4,11.5,12.4a10.34,10.34,0,0,0,8.33-3.8Z"/><path class="cls-1" d="M165.79,122.6h13.09v6.26H165.79v15.61h-7.66V107.16h20.75v6.27H165.79Z"/><path class="cls-1" d="M193.76,129c0,3.47.44,5.37,1.67,6.83a7,7,0,0,0,9.89.5,6.05,6.05,0,0,0,.74-.78c1.12-1.51,1.46-3.14,1.46-6.6V107.16h7.72v21.59c0,5.48-1.18,9.29-3.7,12.09a14.38,14.38,0,0,1-10.79,4.36,15,15,0,0,1-11.3-4.64c-2.41-2.69-3.36-6-3.36-11.81V107.16h7.67Z"/><path class="cls-1" d="M230.11,144.47h-7.66V107.16H230l15.58,23.27V107.16h7.66v37.31h-7.46l-15.67-23.6Z"/><path class="cls-1" d="M260.49,107.16h10.57c6,0,10.12,1.23,13.42,4.14,3.81,3.36,5.88,8.22,5.88,14.1s-2.13,11.35-5.93,14.76c-3.08,2.8-7.56,4.31-12.93,4.31h-11Zm7.66,31h1.43c4.09,0,6.6-.73,8.78-2.57a12.75,12.75,0,0,0,4.2-10c0-7.44-4.53-12.25-11.63-12.25h-2.8Z"/><path class="cls-1" d="M30.22,154.71l-.56.72a1.54,1.54,0,0,0-.55-.36,1.49,1.49,0,0,0-.66-.15,1.23,1.23,0,0,0-1,.39,1.72,1.72,0,0,0-.33,1.12v1.32h2.21v.91H27.15V166h-1v-7.31H24.88v-.91h1.26v-1.34a2.53,2.53,0,0,1,.61-1.81,2.12,2.12,0,0,1,1.64-.63A2.29,2.29,0,0,1,30.22,154.71Z"/><path class="cls-1" d="M34.43,166.16a3.92,3.92,0,0,1-1.62-.34,4.06,4.06,0,0,1-2.19-2.31,4.52,4.52,0,0,1-.31-1.66,4.72,4.72,0,0,1,.53-2.12,3.7,3.7,0,0,1,1.53-1.6,4,4,0,0,1,4.12,0,3.62,3.62,0,0,1,1.52,1.6,4.48,4.48,0,0,1,.54,2.12,4.6,4.6,0,0,1-.21,1.37,4.25,4.25,0,0,1-.78,1.45,3.65,3.65,0,0,1-1.43,1.11A4.3,4.3,0,0,1,34.43,166.16Zm0-.95a3.39,3.39,0,0,0,1-.18,2.76,2.76,0,0,0,1-.6,3.59,3.59,0,0,0,.78-1.08,3.34,3.34,0,0,0,.31-1.52,3.77,3.77,0,0,0-.15-1.06,3.2,3.2,0,0,0-.58-1.13,2.67,2.67,0,0,0-1.06-.85,3,3,0,0,0-3.54.71,3.39,3.39,0,0,0-.65,1.08,3.71,3.71,0,0,0-.23,1.28,4.84,4.84,0,0,0,.15,1.07,3.75,3.75,0,0,0,.59,1.14,2.69,2.69,0,0,0,1.08.87,3.27,3.27,0,0,0,1.31.27Z"/><path class="cls-1" d="M42.3,161.11V166h-1v-8.22h1v1.13a2.55,2.55,0,0,1,.87-1,2.17,2.17,0,0,1,1.23-.35l.52,0a1.52,1.52,0,0,1,.7.28l-.43.94a1.77,1.77,0,0,0-1-.31,1.57,1.57,0,0,0-.93.28,2,2,0,0,0-.66.88A3.9,3.9,0,0,0,42.3,161.11Z"/><path class="cls-1" d="M51.9,166V155h1v11Z"/><path class="cls-1" d="M57.42,161.08V166h-1v-8.22h1V159a2.83,2.83,0,0,1,1.09-1,3,3,0,0,1,1.52-.37,3.07,3.07,0,0,1,2.36.91,3.31,3.31,0,0,1,.89,2.42v5h-1V161.1a2.66,2.66,0,0,0-.64-1.89,2.63,2.63,0,0,0-3.55,0A2.71,2.71,0,0,0,57.42,161.08Z"/><path class="cls-1" d="M65.47,158.66v-.91h1.29v-2h1v2H70.2v.91H67.78v5.1a1.62,1.62,0,0,0,.34,1.08,1.22,1.22,0,0,0,.95.37,2.2,2.2,0,0,0,.63-.12,2.08,2.08,0,0,0,.54-.32l.49.77A2.64,2.64,0,0,1,70,166a2.85,2.85,0,0,1-1,.18,2.24,2.24,0,0,1-1.65-.6,2.49,2.49,0,0,1-.58-1.75v-5.15Z"/><path class="cls-1" d="M76,166.16a4.19,4.19,0,0,1-1.67-.34,4,4,0,0,1-2.24-2.31,4.52,4.52,0,0,1-.31-1.66,4.6,4.6,0,0,1,.3-1.65,4.52,4.52,0,0,1,.84-1.38,4,4,0,0,1,1.28-.93,3.77,3.77,0,0,1,1.58-.33,3.57,3.57,0,0,1,1.55.33,3.49,3.49,0,0,1,1.26.89,3.83,3.83,0,0,1,.83,1.33,4.28,4.28,0,0,1,.3,1.59v.42H72.8a3.71,3.71,0,0,0,.3,1.21A3.16,3.16,0,0,0,74.79,165a3.25,3.25,0,0,0,1.23.24,3.76,3.76,0,0,0,1.41-.27,3,3,0,0,0,1.13-.71l.55.7a3.45,3.45,0,0,1-1.35.87A5.21,5.21,0,0,1,76,166.16Zm-.22-7.71a2.85,2.85,0,0,0-.91.15,2.42,2.42,0,0,0-.9.5,3.61,3.61,0,0,0-.75.94,3.32,3.32,0,0,0-.41,1.35h5.87a3.59,3.59,0,0,0-1-2.15,2.64,2.64,0,0,0-2-.79Z"/><path class="cls-1" d="M83.24,161.11V166h-1v-8.22h1v1.13a2.53,2.53,0,0,1,.86-1,2.17,2.17,0,0,1,1.23-.35l.52,0a1.52,1.52,0,0,1,.7.28l-.43.94a1.77,1.77,0,0,0-1-.31,1.52,1.52,0,0,0-.92.28,1.87,1.87,0,0,0-.66.88A3.54,3.54,0,0,0,83.24,161.11Z"/><path class="cls-1" d="M89.66,161.08V166h-1v-8.22h1V159a2.66,2.66,0,0,1,1.08-1,3.43,3.43,0,0,1,3.88.54,3.31,3.31,0,0,1,.89,2.42v5h-1V161.1a2.43,2.43,0,1,0-4.85,0Z"/><path class="cls-1" d="M105.27,166v-1.65a3.91,3.91,0,0,1-1.34,1.34,3.65,3.65,0,0,1-1.86.5,3.9,3.9,0,0,1-2.87-1.25,4.19,4.19,0,0,1-.85-1.38,4.8,4.8,0,0,1,0-3.34,4.27,4.27,0,0,1,.84-1.39,3.53,3.53,0,0,1,1.29-.91,3.81,3.81,0,0,1,1.59-.33,3.56,3.56,0,0,1,1.86.48,3.77,3.77,0,0,1,1.34,1.32v-1.61h1V166Zm-3.08-.76a3.39,3.39,0,0,0,1-.18,2.76,2.76,0,0,0,1-.6,3.43,3.43,0,0,0,.78-1.08,3.34,3.34,0,0,0,.31-1.52,3.77,3.77,0,0,0-.15-1.06,3.17,3.17,0,0,0-.57-1.13,2.77,2.77,0,0,0-1.07-.85,3,3,0,0,0-1.29-.29,3,3,0,0,0-1.24.26,2.82,2.82,0,0,0-1,.71,3.41,3.41,0,0,0-.66,1.08,3.71,3.71,0,0,0-.23,1.28,3.91,3.91,0,0,0,.16,1.07,3.51,3.51,0,0,0,.58,1.14,3,3,0,0,0,1.08.87,3.23,3.23,0,0,0,1.3.28Z"/><path class="cls-1" d="M108.67,158.66v-.91H110v-2h1v2h2.44v.91H111v5.1a1.63,1.63,0,0,0,.33,1.08,1.28,1.28,0,0,0,1,.37,2.2,2.2,0,0,0,.63-.12,1.87,1.87,0,0,0,.53-.32l.5.77a2.64,2.64,0,0,1-.74.44,2.85,2.85,0,0,1-1,.18,2.24,2.24,0,0,1-1.65-.6,2.49,2.49,0,0,1-.58-1.75v-5.15Z"/><path class="cls-1" d="M116.58,156a.71.71,0,0,1-.69-.68.67.67,0,0,1,.21-.49.58.58,0,0,1,.48-.22.62.62,0,0,1,.48.22.68.68,0,0,1,0,1l0,0A.74.74,0,0,1,116.58,156Zm.51,1.72V166h-1v-8.22Z"/><path class="cls-1" d="M123.93,166.16a3.91,3.91,0,0,1-1.61-.34,4.19,4.19,0,0,1-1.32-.92,4.43,4.43,0,0,1-.88-1.39,4.52,4.52,0,0,1-.31-1.66,4.72,4.72,0,0,1,.53-2.12,3.81,3.81,0,0,1,1.53-1.6,4,4,0,0,1,4.12,0,3.75,3.75,0,0,1,1.53,1.6,4.53,4.53,0,0,1,.32,3.49,3.93,3.93,0,0,1-.78,1.45,3.69,3.69,0,0,1-1.42,1.11A4.35,4.35,0,0,1,123.93,166.16Zm0-.95a3.39,3.39,0,0,0,1-.18,3,3,0,0,0,1-.6,3.56,3.56,0,0,0,.77-1.08,3.49,3.49,0,0,0,.32-1.52,3.45,3.45,0,0,0-.16-1.06,3.17,3.17,0,0,0-.57-1.13,2.77,2.77,0,0,0-1.07-.85,3,3,0,0,0-1.29-.29,3,3,0,0,0-1.24.26,2.82,2.82,0,0,0-1,.71,3.21,3.21,0,0,0-.65,1.08,3.46,3.46,0,0,0-.24,1.28,4.33,4.33,0,0,0,.16,1.07,3.51,3.51,0,0,0,.58,1.14,3,3,0,0,0,1.08.87,3.23,3.23,0,0,0,1.33.3Z"/><path class="cls-1" d="M131.81,161.08V166h-1v-8.22h1V159a2.66,2.66,0,0,1,1.08-1,3.43,3.43,0,0,1,3.89.54,3.26,3.26,0,0,1,.88,2.42v5h-1V161.1a2.43,2.43,0,1,0-4.85,0Z"/><path class="cls-1" d="M147.43,166v-1.65a3.93,3.93,0,0,1-1.35,1.34,3.65,3.65,0,0,1-1.86.5,4,4,0,0,1-2.87-1.25,4.19,4.19,0,0,1-.85-1.38,4.8,4.8,0,0,1,0-3.34,4.27,4.27,0,0,1,.84-1.39,3.53,3.53,0,0,1,1.29-.91,3.81,3.81,0,0,1,1.59-.33,3.56,3.56,0,0,1,1.86.48,3.79,3.79,0,0,1,1.35,1.32v-1.61h1V166Zm-3.09-.76a3.39,3.39,0,0,0,1-.18,3,3,0,0,0,1-.6,3.56,3.56,0,0,0,.77-1.08,3.49,3.49,0,0,0,.32-1.52,4.18,4.18,0,0,0-.16-1.06,3.17,3.17,0,0,0-.57-1.13,2.77,2.77,0,0,0-1.07-.85,3,3,0,0,0-1.29-.29,3,3,0,0,0-1.24.26,2.82,2.82,0,0,0-1,.71,3.21,3.21,0,0,0-.65,1.08,3.46,3.46,0,0,0-.24,1.28,4.33,4.33,0,0,0,.16,1.07,3.51,3.51,0,0,0,.58,1.14,3,3,0,0,0,1.08.87,3.28,3.28,0,0,0,1.31.28Z"/><path class="cls-1" d="M151.8,166V154.16h1V166Z"/><path class="cls-1" d="M160.4,166V155h3.11a7.56,7.56,0,0,1,2.5.39,5.49,5.49,0,0,1,2,1.12,4.9,4.9,0,0,1,1.27,1.75,5.91,5.91,0,0,1,0,4.45,4.94,4.94,0,0,1-1.22,1.75,5.41,5.41,0,0,1-1.91,1.12,6.9,6.9,0,0,1-2.39.4Zm3.18-10h-2.13v9h2.13a6.37,6.37,0,0,0,1.57-.19,5.83,5.83,0,0,0,1.35-.53,4.78,4.78,0,0,0,1.12-.93,3.64,3.64,0,0,0,.75-1.36,5,5,0,0,0,.24-1.52,4.48,4.48,0,0,0-.36-1.84,3.9,3.9,0,0,0-1-1.44,4.37,4.37,0,0,0-1.6-.93A6,6,0,0,0,163.58,156Z"/><path class="cls-1" d="M176.09,166.16a4.26,4.26,0,0,1-3-1.26,4.52,4.52,0,0,1-.89-1.39,4.72,4.72,0,0,1,0-3.31,4.52,4.52,0,0,1,.84-1.38,3.83,3.83,0,0,1,4.41-.93,3.75,3.75,0,0,1,1.26.89,4.08,4.08,0,0,1,.83,1.33,4.28,4.28,0,0,1,.3,1.59v.42H173a3.71,3.71,0,0,0,.3,1.21,3.38,3.38,0,0,0,.67,1,3.25,3.25,0,0,0,2.25.91,3.9,3.9,0,0,0,1.4-.25,3,3,0,0,0,1.13-.71l.55.7a3.45,3.45,0,0,1-1.35.87A5.12,5.12,0,0,1,176.09,166.16Zm-.22-7.71a2.85,2.85,0,0,0-.91.15,2.54,2.54,0,0,0-.91.5,3.38,3.38,0,0,0-.74.94,3.32,3.32,0,0,0-.41,1.35h5.87a3.56,3.56,0,0,0-1-2.15,2.61,2.61,0,0,0-1.9-.79Z"/><path class="cls-1" d="M187.5,157.75h1.08L185.34,166H184l-3.22-8.22h1.11l2.78,7.28Z"/><path class="cls-1" d="M194,166.16a4.19,4.19,0,0,1-1.67-.34,4,4,0,0,1-2.24-2.31,4.52,4.52,0,0,1-.31-1.66,4.6,4.6,0,0,1,.3-1.65,4.52,4.52,0,0,1,.84-1.38,4,4,0,0,1,1.28-.93,3.77,3.77,0,0,1,1.58-.33,4,4,0,0,1,3.65,2.55,4.28,4.28,0,0,1,.3,1.59v.42h-6.92a3.71,3.71,0,0,0,.3,1.21,3.23,3.23,0,0,0,.68,1,3.38,3.38,0,0,0,1,.67,3.34,3.34,0,0,0,1.24.24,3.71,3.71,0,0,0,1.4-.27,3.14,3.14,0,0,0,1.14-.71l.55.7a3.49,3.49,0,0,1-1.36.87A5.28,5.28,0,0,1,194,166.16Zm-.22-7.71a2.85,2.85,0,0,0-.91.15,2.42,2.42,0,0,0-.9.5,3.61,3.61,0,0,0-.75.94,3.32,3.32,0,0,0-.41,1.35h5.87a3.59,3.59,0,0,0-1-2.15,2.64,2.64,0,0,0-1.95-.79Z"/><path class="cls-1" d="M200.22,166V154.16h1V166Z"/><path class="cls-1" d="M208.1,166.16a3.92,3.92,0,0,1-1.62-.34,4.06,4.06,0,0,1-2.19-2.31,4.52,4.52,0,0,1-.31-1.66,4.72,4.72,0,0,1,.53-2.12,3.7,3.7,0,0,1,1.53-1.6,4,4,0,0,1,4.12,0,3.62,3.62,0,0,1,1.52,1.6,4.48,4.48,0,0,1,.54,2.12,4.6,4.6,0,0,1-.21,1.37,4.25,4.25,0,0,1-.78,1.45,3.69,3.69,0,0,1-1.42,1.11A4.35,4.35,0,0,1,208.1,166.16Zm0-.95a3.39,3.39,0,0,0,1-.18,2.76,2.76,0,0,0,1-.6,3.59,3.59,0,0,0,.78-1.08,3.34,3.34,0,0,0,.31-1.52,3.77,3.77,0,0,0-.15-1.06,3.2,3.2,0,0,0-.58-1.13,2.67,2.67,0,0,0-1.06-.85,3,3,0,0,0-3.54.71,3.39,3.39,0,0,0-.65,1.08,3.71,3.71,0,0,0-.23,1.28,3.91,3.91,0,0,0,.16,1.07,3.51,3.51,0,0,0,.58,1.14,2.87,2.87,0,0,0,1.08.87,3.27,3.27,0,0,0,1.31.27Z"/><path class="cls-1" d="M215,157.75h1v1.61a3.79,3.79,0,0,1,1.36-1.31,3.53,3.53,0,0,1,1.84-.49,3.85,3.85,0,0,1,1.57.33,3.53,3.53,0,0,1,1.29.91,4.13,4.13,0,0,1,.85,1.39,4.8,4.8,0,0,1,0,3.34,4.16,4.16,0,0,1-.84,1.38,3.81,3.81,0,0,1-1.29.92,3.86,3.86,0,0,1-1.58.33,3.79,3.79,0,0,1-1.86-.48,3.85,3.85,0,0,1-1.34-1.29v4.94h-1Zm4.13.75a2.93,2.93,0,0,0-1.23.27,3,3,0,0,0-1,.73,3.16,3.16,0,0,0-.65,1.09,3.59,3.59,0,0,0,0,2.58,3.45,3.45,0,0,0,.65,1.07,3.12,3.12,0,0,0,1,.72,3.08,3.08,0,0,0,1.23.25,2.85,2.85,0,0,0,1.16-.22,3.39,3.39,0,0,0,.9-.58,3.32,3.32,0,0,0,.71-1,3.49,3.49,0,0,0,.32-1.52,3.55,3.55,0,0,0-.22-1.3,3.06,3.06,0,0,0-.65-1.08,3,3,0,0,0-1-.73A2.73,2.73,0,0,0,219.08,158.5Z"/><path class="cls-1" d="M226.94,161.08V166h-1v-8.22h1V159a2.74,2.74,0,0,1,1-1,2.82,2.82,0,0,1,1.45-.37,3.08,3.08,0,0,1,1.75.48,2.77,2.77,0,0,1,1.09,1.32,3.1,3.1,0,0,1,5-.89,3.36,3.36,0,0,1,.86,2.42v5h-1V161.1a2.74,2.74,0,0,0-.61-1.89,2.08,2.08,0,0,0-1.67-.69,2.12,2.12,0,0,0-1.69.69,2.74,2.74,0,0,0-.61,1.89V166h-1V161.1a2.74,2.74,0,0,0-.61-1.89,2.38,2.38,0,0,0-3.35,0A2.75,2.75,0,0,0,226.94,161.08Z"/><path class="cls-1" d="M244.88,166.16a4.16,4.16,0,0,1-3.92-2.65,4.72,4.72,0,0,1,0-3.31,4.52,4.52,0,0,1,.84-1.38,3.83,3.83,0,0,1,4.41-.93,3.75,3.75,0,0,1,1.26.89,4.08,4.08,0,0,1,.83,1.33,4.28,4.28,0,0,1,.3,1.59v.42h-6.92a4,4,0,0,0,.31,1.21,3.1,3.1,0,0,0,1.67,1.67,3.25,3.25,0,0,0,1.23.24,4,4,0,0,0,1.41-.27,3.1,3.1,0,0,0,1.13-.71l.55.7a3.42,3.42,0,0,1-1.36.87A5.12,5.12,0,0,1,244.88,166.16Zm-.23-7.71a2.85,2.85,0,0,0-.91.15,2.42,2.42,0,0,0-.9.5,3.24,3.24,0,0,0-.74.94,3.49,3.49,0,0,0-.42,1.35h5.9a3.56,3.56,0,0,0-1-2.15,2.63,2.63,0,0,0-1.93-.79Z"/><path class="cls-1" d="M252.15,161.08V166h-1v-8.22h1V159a2.83,2.83,0,0,1,1.09-1,3,3,0,0,1,1.52-.37,3.07,3.07,0,0,1,2.36.91A3.31,3.31,0,0,1,258,161v5h-1V161.1a2.66,2.66,0,0,0-.64-1.89,2.63,2.63,0,0,0-3.55,0A2.71,2.71,0,0,0,252.15,161.08Z"/><path class="cls-1" d="M260.2,158.66v-.91h1.29v-2h1v2h2.44v.91h-2.42v5.1a1.62,1.62,0,0,0,.34,1.08,1.21,1.21,0,0,0,1,.37,2.2,2.2,0,0,0,.63-.12,2.08,2.08,0,0,0,.54-.32l.49.77a2.64,2.64,0,0,1-.74.44,2.85,2.85,0,0,1-1,.18,2.24,2.24,0,0,1-1.65-.6,2.49,2.49,0,0,1-.58-1.75v-5.15Z"/><path class="cls-1" d="M195.64,227.61a.7.7,0,0,1,.42,1.33,86.63,86.63,0,0,1-10.57,3.26,83.63,83.63,0,0,1-25.91,2.05,93.36,93.36,0,0,1-25.69-5.81,118.81,118.81,0,0,1-23.51-12.17h0a4.82,4.82,0,0,1-2-5.27,4.88,4.88,0,0,1,6-3.49,4.74,4.74,0,0,1,1.45.65l.37.28a110.24,110.24,0,0,0,20.65,13.31,87.39,87.39,0,0,0,23.41,7.69,79.68,79.68,0,0,0,24.9.38A83.5,83.5,0,0,0,195.64,227.61Z"/><path class="cls-2" d="M225.72,222.34a.69.69,0,1,1,.89,1.06h0a111.25,111.25,0,0,1-28.12,20.43,113.57,113.57,0,0,1-43.2,12A117.21,117.21,0,0,1,109.5,250a122.26,122.26,0,0,1-41.13-23.61h0a13.57,13.57,0,0,1,17.28-20.93l.36.31a13.55,13.55,0,0,1,1.5,1.53,98.37,98.37,0,0,0,29.83,24,100,100,0,0,0,38,11,103.53,103.53,0,0,0,40.58-4.75A107.54,107.54,0,0,0,225.72,222.34Z"/><path class="cls-3" d="M74.86,31.35a.61.61,0,0,1-.8-.92A99,99,0,0,1,99.69,11.35a102.25,102.25,0,0,1,38.52-11A105.55,105.55,0,0,1,179.3,5.14,108.79,108.79,0,0,1,216.58,26h0a13.77,13.77,0,0,1,2,19,13.6,13.6,0,0,1-19.11,2l-.29-.24a16.42,16.42,0,0,1-1.7-1.74,85,85,0,0,0-25.9-21.2,88.41,88.41,0,0,0-33.35-10,91.86,91.86,0,0,0-35.94,3.76A94.57,94.57,0,0,0,74.86,31.35Z"/><path class="cls-1" d="M88.29,33.76a.63.63,0,0,1-.8-.37.62.62,0,0,1,.26-.74q1.38-.81,2.76-1.56a76.17,76.17,0,0,1,12.19-5.3A73.28,73.28,0,0,1,129.42,22a81.75,81.75,0,0,1,26.84,5.94,94.88,94.88,0,0,1,24,14.12h0a6.77,6.77,0,1,1-8.47,10.57c-.22-.18-.46-.4-.65-.59a82.88,82.88,0,0,0-19.25-15,73.3,73.3,0,0,0-23.2-8.38,68.06,68.06,0,0,0-25.13.34,73.84,73.84,0,0,0-12.37,3.58Z"/></g></g></g></svg>