<svg width="210" height="205" viewBox="0 0 210 205" fill="none" xmlns="http://www.w3.org/2000/svg">
  <path d="M94.9199 203.018C90.0788 202.687 45.2161 198.837 17.9509 159.132C-3.38154 128.06 -6.39824 86.0558 12.6644 51.8665C14.0579 49.367 39.4556 5.59606 91.1849 0.482034C133.878 -3.74135 177.434 20.0619 195.347 61.1178C209.669 93.928 205.518 132.973 183.525 162.436C181.715 164.849 149.264 206.753 94.9055 203.032L94.9199 203.018ZM41.9552 51.9815C44.9575 54.4954 48.5488 57.1817 52.7579 59.7818C56.0331 61.8073 59.1791 63.4449 62.0665 64.7953C66.0457 75.2388 71.1454 93.2097 68.574 115.145C67.5397 123.923 65.4998 131.536 63.2876 137.771C71.8349 134.179 87.8234 128.85 108.078 130.344C121.065 131.292 131.537 134.74 138.691 137.771C140.056 141.147 141.822 144.939 144.164 148.947C146.879 153.601 149.723 157.48 152.323 160.611C156.475 156.345 161.862 150.11 166.962 141.807C170.998 135.257 178.109 123.822 180.091 109.557C183.18 87.32 173.096 69.4352 168.887 62.8128C167.608 60.7012 144.595 24.1991 101.743 24.0698C66.6634 23.9692 45.0868 48.3183 41.9552 51.9815ZM45.3741 103.754C46.2504 83.1397 38.1053 68.0849 34.6576 62.425C31.0951 68.3291 23.5533 82.1341 23.5677 101.197C23.5677 114.7 27.1159 128.29 33.6664 140.457C37.3152 134.811 44.6271 121.84 45.3885 103.768L45.3741 103.754ZM104.803 154.291C81.4884 153.285 64.7672 163.585 59.2366 167.349C65.5717 171.184 82.1923 180.048 104.803 178.985C123.435 178.123 137.024 170.94 143.374 167.018C137.585 163.14 123.938 155.11 104.803 154.276V154.291Z" fill="url(#paint0_linear_431_2222)"/>
  <path d="M167.651 60.8596C163.744 67.4676 154.55 85.0363 156.46 108.437C157.71 123.794 163.227 135.343 166.961 141.793C165.166 144.767 163.011 147.985 160.44 151.318C157.667 154.895 154.909 157.983 152.323 160.598C148.344 155.8 142.885 148.172 138.691 137.757C132.427 122.156 132.442 108.84 132.528 101.312C132.7 86.2573 136.076 73.8458 139.351 65.1117C130.23 68.8467 101.384 79.2758 69.4933 67.8411C57.4695 63.5315 48.3332 57.3114 41.9551 51.9819C44.2679 49.2525 47.1984 46.1639 50.8759 43.0754C54.6683 39.8719 58.3315 37.4442 61.4918 35.6055C66.534 39.1824 80.9855 48.448 101.743 48.6778C122.573 48.9077 137.283 39.8863 142.383 36.4099C146.218 38.8807 150.585 42.1129 155.067 46.2789C160.569 51.4072 164.663 56.5356 167.665 60.8596H167.651Z" fill="#4C4E89"/>
  <defs>
    <linearGradient id="paint0_linear_431_2222" x1="-0.00570567" y1="101.628" x2="203.708" y2="101.628" gradientUnits="userSpaceOnUse">
      <stop stop-color="#4EBECC"/>
      <stop offset="1" stop-color="#4799D1"/>
    </linearGradient>
  </defs>
</svg>
