<svg width="880" height="204" viewBox="0 0 880 204" fill="none" xmlns="http://www.w3.org/2000/svg">
<path d="M94.9199 203.018C90.0788 202.687 45.2161 198.837 17.9509 159.132C-3.38154 128.06 -6.39824 86.0558 12.6644 51.8665C14.0579 49.367 39.4556 5.59606 91.1849 0.482034C133.878 -3.74135 177.434 20.0619 195.347 61.1178C209.669 93.928 205.518 132.973 183.525 162.436C181.715 164.849 149.264 206.753 94.9055 203.032L94.9199 203.018ZM41.9552 51.9815C44.9575 54.4954 48.5488 57.1817 52.7579 59.7818C56.0331 61.8073 59.1791 63.4449 62.0665 64.7953C66.0457 75.2388 71.1454 93.2097 68.574 115.145C67.5397 123.923 65.4998 131.536 63.2876 137.771C71.8349 134.179 87.8234 128.85 108.078 130.344C121.065 131.292 131.537 134.74 138.691 137.771C140.056 141.147 141.822 144.939 144.164 148.947C146.879 153.601 149.723 157.48 152.323 160.611C156.475 156.345 161.862 150.11 166.962 141.807C170.998 135.257 178.109 123.822 180.091 109.557C183.18 87.32 173.096 69.4352 168.887 62.8128C167.608 60.7012 144.595 24.1991 101.743 24.0698C66.6634 23.9692 45.0868 48.3183 41.9552 51.9815ZM45.3741 103.754C46.2504 83.1397 38.1053 68.0849 34.6576 62.425C31.0951 68.3291 23.5533 82.1341 23.5677 101.197C23.5677 114.7 27.1159 128.29 33.6664 140.457C37.3152 134.811 44.6271 121.84 45.3885 103.768L45.3741 103.754ZM104.803 154.291C81.4884 153.285 64.7672 163.585 59.2366 167.349C65.5717 171.184 82.1923 180.048 104.803 178.985C123.435 178.123 137.024 170.94 143.374 167.018C137.585 163.14 123.938 155.11 104.803 154.276V154.291Z" fill="#E6E6E6"/>
<path opacity="0.75" d="M167.651 60.8596C163.744 67.4676 154.55 85.0363 156.46 108.437C157.71 123.794 163.227 135.343 166.961 141.793C165.166 144.767 163.011 147.985 160.44 151.318C157.667 154.895 154.909 157.983 152.323 160.598C148.344 155.8 142.885 148.172 138.691 137.757C132.427 122.156 132.442 108.84 132.528 101.312C132.7 86.2573 136.076 73.8458 139.351 65.1117C130.23 68.8467 101.384 79.2758 69.4933 67.8411C57.4695 63.5315 48.3332 57.3114 41.9551 51.9819C44.2679 49.2525 47.1984 46.1639 50.8759 43.0754C54.6683 39.8719 58.3315 37.4442 61.4918 35.6055C66.534 39.1824 80.9855 48.448 101.743 48.6778C122.573 48.9077 137.283 39.8863 142.383 36.4099C146.218 38.8807 150.585 42.1129 155.067 46.2789C160.569 51.4072 164.663 56.5356 167.665 60.8596H167.651Z" fill="#E6E6E6"/>
<path d="M314.349 57.8564C327.594 59.2499 336.759 70.0669 336.112 80.7547C335.638 88.4688 330.079 95.5365 322.106 98.9554C331.128 100.708 336.974 107.503 338.827 115.303C341.729 127.499 332.78 136.521 331.544 137.713C324.821 144.177 316.576 144.709 314.349 144.781H268.84V57.8708H314.349V57.8564ZM283.665 93.5685H310.298C311.39 93.3817 313.027 92.9651 314.722 91.9308C315.527 91.4424 320.454 88.4544 320.741 82.7514C321.014 77.2783 316.777 73.8737 316.26 73.4715C314.521 72.1211 312.74 71.5753 311.648 71.3454H283.665V93.5828V93.5685ZM283.665 131.292H311.648C312.611 131.234 317.481 130.818 320.684 126.795C323.701 123.003 324.491 116.294 320.756 111.597C317.251 107.187 311.778 107.057 310.973 107.043H283.665V131.292Z" fill="#E6E6E6"/>
<path d="M525.03 57.8564V107.029C525.317 107.029 525.605 107.029 525.878 107.029C535.028 97.5907 544.179 88.1671 553.344 78.7292H570.194L546.664 104.084L572.22 144.752H556.375C554.594 144.752 539.482 118.349 536.795 115.088L535.086 115.562C531.724 119.57 528.377 123.577 525.016 127.585V144.766H510.852V57.8564H525.016H525.03Z" fill="#E6E6E6"/>
<path d="M854.037 117.142H804.147C809.318 136.19 829.803 137.181 843.493 125.976C844.427 126.134 850.733 133.561 850.618 134.236C833.093 151.762 798.544 148.4 791.003 122.529C782.57 93.5971 808.011 70.0955 836.196 80.065C844.757 83.0961 854.037 94.0711 854.037 103.337V117.142ZM841.223 106.368C840.275 96.9011 832.202 89.6035 822.678 89.6035C813.154 89.6035 805.095 96.9011 804.132 106.368H841.209H841.223Z" fill="#E6E6E6"/>
<path d="M409.074 144.091H394.91C394.91 141.85 394.91 139.595 394.91 137.354C392.123 139.724 389.164 141.994 385.658 143.258C373.232 147.769 352.532 144.594 350.478 128.864C348.74 115.662 355.836 106.612 369.038 105.075C372.96 104.615 393.559 105.779 394.838 104.256C396.619 102.159 392.769 94.6171 390.528 92.8789C382.34 86.5151 367.616 91.5717 359.585 96.2978L353.782 86.4864C357.919 83.5702 367.199 77.9821 379.697 78.0109C384.653 78.0109 398.601 78.0683 405.583 87.9372C407.824 91.112 408.686 94.3872 409.074 96.5851V144.077V144.091ZM394.91 115.116C387.325 115.044 380.501 115.073 374.353 115.116C373.017 115.116 370.69 115.174 368.42 116.596C365.791 118.248 363.22 121.782 363.809 125.56C364.513 130.114 369.325 132.197 370.776 132.829C376.694 135.4 384.394 133.834 389.379 129.079C394.981 123.735 394.953 116.481 394.924 115.102L394.91 115.116Z" fill="#E6E6E6"/>
<path d="M491.314 144.767H477.15V106.024C476.877 101.398 475.124 98.8556 474.076 97.6489C467.741 90.3801 451.824 91.3713 445.575 100.077C442.76 103.998 442.573 108.552 442.774 111.325V144.092H427.935V78.7011C432.876 78.7011 437.818 78.7299 442.774 78.7442V89.5182C443.722 88.2828 452.083 77.6956 465.959 77.8823C466.692 77.8823 481.847 78.3133 488.542 89.9348C490.452 93.2388 491.084 96.4566 491.314 98.6114V144.767Z" fill="#E6E6E6"/>
<path d="M780.545 84.1454L775.776 94.8763C769.24 92.5778 752.202 85.0217 747.476 93.1955C742.19 102.389 764.039 105.578 769.24 107.906C779.971 112.704 785.358 122.903 779.669 134.137C773.492 146.333 750.924 148.732 736.932 140.845C733.686 139.021 731.43 136.938 730.224 135.702C731.617 132.456 733.011 129.195 734.404 125.948C738.067 126.882 740.308 129.626 743.957 131.134C749.516 133.433 758.681 135.156 764.154 132.111C768.435 129.726 769.268 124.368 764.973 121.581C757.403 116.668 740.739 115.62 735.05 107.015C729.103 97.9935 733.786 85.309 743.21 80.8702C755.104 75.2677 769.426 78.1264 780.531 84.1454H780.545Z" fill="#E6E6E6"/>
<path d="M690.877 78.0683V91.2125C688.493 91.155 684.772 91.428 680.793 93.2667C671.484 97.5763 668.482 106.942 667.95 108.724V144.091H653.786V78.7434H667.95V90.1926C673.797 82.8088 680.922 77.6086 690.877 78.0683Z" fill="#E6E6E6"/>
<path d="M716.504 85.5527H702.34V144.091H716.504V85.5527Z" fill="#E6E6E6"/>
<path d="M707.555 58.0869C719.564 55.6448 721.877 73.6301 711.275 75.2965C699.151 77.207 697.614 60.098 707.555 58.0869Z" fill="#E6E6E6"/>
<path d="M638.988 117.142H589.098C594.269 136.19 614.754 137.181 628.444 125.976C629.378 126.134 635.684 133.561 635.569 134.236C618.044 151.762 583.495 148.4 575.954 122.529C567.521 93.5971 592.962 70.0955 621.147 80.065C629.709 83.0961 638.988 94.0711 638.988 103.337V117.142ZM626.175 106.368C625.227 96.9011 617.153 89.6035 607.629 89.6035C598.105 89.6035 590.046 96.9011 589.084 106.368H626.16H626.175Z" fill="#E6E6E6"/>
<path d="M871.779 71.3031C872.813 70.4268 873.316 69.2201 873.316 67.6686C873.316 66.1172 872.799 65.0111 871.779 64.1204C870.744 63.2298 869.337 62.7988 867.541 62.7988H861.838V77.4801H863.734V72.6103H867.512C867.799 72.6103 868.058 72.5816 868.317 72.5528L871.506 77.4657H873.474L870.069 72.2224C870.716 72.007 871.305 71.7053 871.779 71.2887V71.3031ZM867.412 71.0158H863.705V64.4077H867.412C868.69 64.4077 869.696 64.695 870.414 65.2553C871.132 65.8299 871.491 66.6343 871.491 67.6686C871.491 68.7029 871.132 69.5649 870.414 70.1395C869.696 70.7141 868.704 71.0158 867.412 71.0158Z" fill="#E6E6E6"/>
<path d="M878.717 65.0393C878.07 63.5023 877.18 62.1519 876.03 60.9883C874.881 59.8248 873.516 58.9197 871.965 58.2877C870.399 57.6412 868.718 57.3252 866.894 57.3252C865.07 57.3252 863.389 57.6556 861.823 58.302C860.257 58.9628 858.893 59.8679 857.743 61.0458C856.58 62.2238 855.675 63.5884 855.014 65.1399C854.353 66.6913 854.037 68.3577 854.037 70.1534C854.037 71.949 854.353 73.6154 855 75.1668C855.646 76.7183 856.537 78.083 857.7 79.2609C858.864 80.4389 860.214 81.3439 861.766 82.0047C863.317 82.6655 864.998 82.9815 866.822 82.9815C868.647 82.9815 870.327 82.6511 871.879 82.0047C873.43 81.3439 874.795 80.4389 875.958 79.2609C877.136 78.083 878.042 76.7183 878.702 75.1525C879.363 73.5867 879.679 71.9059 879.679 70.0815C879.679 68.2572 879.363 66.5908 878.717 65.0537V65.0393ZM877.438 74.5922C876.864 76.0144 876.045 77.2354 874.982 78.2841C873.933 79.3328 872.698 80.1372 871.319 80.7406C869.925 81.3295 868.417 81.6312 866.793 81.6312C865.17 81.6312 863.705 81.3439 862.312 80.7549C860.918 80.1803 859.711 79.3615 858.677 78.2985C857.643 77.2354 856.838 76.0288 856.264 74.6353C855.675 73.2419 855.387 71.7479 855.387 70.1534C855.387 68.5588 855.675 67.0217 856.264 65.6427C856.838 64.2636 857.643 63.0426 858.677 61.9939C859.711 60.9452 860.918 60.1264 862.326 59.5374C863.734 58.9628 865.242 58.6612 866.865 58.6612C868.489 58.6612 870.026 58.9485 871.419 59.5087C872.813 60.0833 874.019 60.8878 875.053 61.9221C876.088 62.9564 876.878 64.1774 877.453 65.5565C878.027 66.9356 878.3 68.4439 878.3 70.0672C878.3 71.6904 878.013 73.1701 877.424 74.5922H877.438Z" fill="#E6E6E6"/>
</svg>
