<svg width="880" height="204" viewBox="0 0 880 204" fill="none" xmlns="http://www.w3.org/2000/svg">
<path d="M94.9199 203.018C90.0788 202.687 45.2161 198.837 17.9509 159.132C-3.38154 128.06 -6.39824 86.0558 12.6644 51.8665C14.0579 49.367 39.4556 5.59606 91.1849 0.482034C133.878 -3.74135 177.434 20.0619 195.347 61.1178C209.669 93.928 205.518 132.973 183.525 162.436C181.715 164.849 149.264 206.753 94.9055 203.032L94.9199 203.018ZM41.9552 51.9815C44.9575 54.4954 48.5488 57.1817 52.7579 59.7818C56.0331 61.8073 59.1791 63.4449 62.0665 64.7953C66.0457 75.2388 71.1454 93.2097 68.574 115.145C67.5397 123.923 65.4998 131.536 63.2876 137.771C71.8349 134.179 87.8234 128.85 108.078 130.344C121.065 131.292 131.537 134.74 138.691 137.771C140.056 141.147 141.822 144.939 144.164 148.947C146.879 153.601 149.723 157.48 152.323 160.611C156.475 156.345 161.862 150.11 166.962 141.807C170.998 135.257 178.109 123.822 180.091 109.557C183.18 87.32 173.096 69.4352 168.887 62.8128C167.608 60.7012 144.595 24.1991 101.743 24.0698C66.6634 23.9692 45.0868 48.3183 41.9552 51.9815ZM45.3741 103.754C46.2504 83.1397 38.1053 68.0849 34.6576 62.425C31.0951 68.3291 23.5533 82.1341 23.5677 101.197C23.5677 114.7 27.1159 128.29 33.6664 140.457C37.3152 134.811 44.6271 121.84 45.3885 103.768L45.3741 103.754ZM104.803 154.291C81.4884 153.285 64.7672 163.585 59.2366 167.349C65.5717 171.184 82.1923 180.048 104.803 178.985C123.435 178.123 137.024 170.94 143.374 167.018C137.585 163.14 123.938 155.11 104.803 154.276V154.291Z" fill="url(#paint0_linear_150_2546)"/>
<path d="M167.653 60.8591C163.746 67.4671 154.552 85.0358 156.462 108.437C157.712 123.793 163.228 135.343 166.963 141.793C165.168 144.767 163.013 147.984 160.442 151.317C157.669 154.894 154.911 157.983 152.325 160.597C148.346 155.799 142.887 148.171 138.693 137.756C132.429 122.156 132.444 108.839 132.53 101.312C132.702 86.2569 136.078 73.8453 139.353 65.1112C130.231 68.8462 101.386 79.2753 69.4952 67.8406C57.4715 63.531 48.3352 57.3109 41.957 51.9814C44.2698 49.252 47.2003 46.1634 50.8779 43.0749C54.6703 39.8715 58.3334 37.4437 61.4938 35.605C66.536 39.1819 80.9874 48.4475 101.745 48.6774C122.575 48.9072 137.285 39.8858 142.384 36.4094C146.22 38.8803 150.587 42.1124 155.069 46.2784C160.571 51.4068 164.665 56.5352 167.667 60.8591H167.653Z" fill="#D8D9F2"/>
<path d="M314.345 57.8564C327.59 59.2499 336.755 70.0669 336.108 80.7547C335.634 88.4688 330.075 95.5365 322.102 98.9554C331.124 100.708 336.97 107.503 338.823 115.303C341.725 127.499 332.776 136.521 331.54 137.713C324.817 144.177 316.572 144.709 314.345 144.781H268.836V57.8708H314.345V57.8564ZM283.661 93.5685H310.294C311.386 93.3817 313.023 92.9651 314.719 91.9308C315.523 91.4424 320.45 88.4544 320.738 82.7514C321.011 77.2783 316.773 73.8737 316.256 73.4715C314.517 72.1211 312.736 71.5753 311.644 71.3454H283.661V93.5828V93.5685ZM283.661 131.292H311.644C312.607 131.234 317.477 130.818 320.68 126.795C323.697 123.003 324.487 116.294 320.752 111.597C317.247 107.187 311.774 107.057 310.969 107.043H283.661V131.292Z" fill="#D8D9F2"/>
<path d="M525.026 57.8564V107.029C525.313 107.029 525.601 107.029 525.874 107.029C535.024 97.5907 544.175 88.1671 553.34 78.7292H570.191L546.66 104.084L572.216 144.752H556.371C554.59 144.752 539.478 118.349 536.791 115.088L535.082 115.562C531.72 119.57 528.373 123.577 525.012 127.585V144.766H510.848V57.8564H525.012H525.026Z" fill="#D8D9F2"/>
<path d="M854.034 117.142H804.144C809.315 136.191 829.8 137.182 843.49 125.977C844.424 126.135 850.73 133.562 850.615 134.237C833.09 151.762 798.541 148.401 791 122.529C782.567 93.5976 808.008 70.096 836.193 80.0655C844.754 83.0966 854.034 94.0716 854.034 103.337V117.142ZM841.221 106.368C840.272 96.9016 832.199 89.604 822.675 89.604C813.151 89.604 805.092 96.9016 804.129 106.368H841.206H841.221Z" fill="#D8D9F2"/>
<path d="M409.07 144.091H394.906C394.906 141.851 394.906 139.595 394.906 137.354C392.119 139.724 389.16 141.994 385.654 143.258C373.229 147.769 352.528 144.594 350.474 128.864C348.736 115.663 355.832 106.613 369.034 105.075C372.956 104.616 393.555 105.779 394.834 104.257C396.615 102.159 392.765 94.6176 390.524 92.8794C382.336 86.5156 367.612 91.5721 359.582 96.2983L353.778 86.4868C357.915 83.5707 367.195 77.9826 379.693 78.0113C384.649 78.0113 398.598 78.0688 405.579 87.9377C407.82 91.1125 408.682 94.3877 409.07 96.5856V144.077V144.091ZM394.906 115.117C387.321 115.045 380.497 115.074 374.349 115.117C373.013 115.117 370.686 115.174 368.416 116.596C365.787 118.248 363.216 121.782 363.805 125.56C364.509 130.114 369.321 132.197 370.772 132.829C376.691 135.401 384.39 133.835 389.375 129.08C394.978 123.736 394.949 116.481 394.92 115.102L394.906 115.117Z" fill="#D8D9F2"/>
<path d="M491.309 144.766H477.145V106.023C476.872 101.398 475.12 98.8551 474.071 97.6484C467.736 90.3796 451.819 91.3708 445.57 100.076C442.755 103.998 442.568 108.552 442.769 111.324V144.091H427.93V78.7007C432.871 78.7007 437.813 78.7294 442.769 78.7437V89.5177C443.717 88.2823 452.078 77.6951 465.955 77.8818C466.687 77.8818 481.842 78.3128 488.537 89.9343C490.447 93.2383 491.079 96.4561 491.309 98.6109V144.766Z" fill="#D8D9F2"/>
<path d="M780.54 84.145L775.771 94.8758C769.235 92.5774 752.198 85.0212 747.471 93.1951C742.185 102.389 764.035 105.578 769.235 107.905C779.966 112.703 785.353 122.902 779.664 134.136C773.487 146.332 750.919 148.731 736.927 140.845C733.681 139.02 731.425 136.937 730.219 135.702C731.612 132.455 733.006 129.194 734.399 125.948C738.062 126.882 740.303 129.625 743.952 131.134C749.511 133.432 758.676 135.156 764.149 132.111C768.43 129.726 769.264 124.368 764.968 121.581C757.398 116.668 740.734 115.619 735.046 107.014C729.098 97.9931 733.781 85.3085 743.205 80.8697C755.099 75.2672 769.422 78.1259 780.526 84.145H780.54Z" fill="#D8D9F2"/>
<path d="M690.872 78.0683V91.2125C688.488 91.155 684.767 91.428 680.788 93.2667C671.479 97.5763 668.477 106.942 667.945 108.724V144.091H653.781V78.7434H667.945V90.1926C673.792 82.8088 680.917 77.6086 690.872 78.0683Z" fill="#D8D9F2"/>
<path d="M716.5 85.5527H702.336V144.091H716.5V85.5527Z" fill="#D8D9F2"/>
<path d="M707.551 58.0864C719.56 55.6443 721.873 73.6296 711.271 75.296C699.147 77.2066 697.61 60.0975 707.551 58.0864Z" fill="#D8D9F2"/>
<path d="M638.984 117.142H589.093C594.265 136.191 614.749 137.182 628.439 125.977C629.373 126.135 635.68 133.562 635.565 134.237C618.039 151.762 583.491 148.401 575.949 122.529C567.516 93.5976 592.957 70.096 621.142 80.0655C629.704 83.0966 638.984 94.0716 638.984 103.337V117.142ZM626.17 106.368C625.222 96.9016 617.148 89.604 607.624 89.604C598.1 89.604 590.041 96.9016 589.079 106.368H626.155H626.17Z" fill="url(#paint1_linear_150_2546)"/>
<path d="M871.777 71.3026C872.811 70.4263 873.314 69.2196 873.314 67.6682C873.314 66.1167 872.797 65.0106 871.777 64.1199C870.742 63.2293 869.335 62.7983 867.539 62.7983H861.836V77.4796H863.732V72.6098H867.51C867.798 72.6098 868.056 72.5811 868.315 72.5523L871.504 77.4653H873.472L870.067 72.2219C870.714 72.0065 871.303 71.7048 871.777 71.2882V71.3026ZM867.41 71.0153H863.703V64.4072H867.41C868.688 64.4072 869.694 64.6946 870.412 65.2548C871.13 65.8294 871.489 66.6339 871.489 67.6682C871.489 68.7025 871.13 69.5644 870.412 70.139C869.694 70.7136 868.703 71.0153 867.41 71.0153Z" fill="#D8D9F2"/>
<path d="M878.715 65.0393C878.068 63.5023 877.178 62.1519 876.028 60.9883C874.879 59.8248 873.514 58.9197 871.963 58.2877C870.397 57.6412 868.716 57.3252 866.892 57.3252C865.068 57.3252 863.387 57.6556 861.821 58.302C860.255 58.9628 858.891 59.8679 857.741 61.0458C856.578 62.2238 855.673 63.5884 855.012 65.1399C854.351 66.6913 854.035 68.3577 854.035 70.1534C854.035 71.949 854.351 73.6154 854.998 75.1668C855.644 76.7183 856.535 78.083 857.698 79.2609C858.862 80.4389 860.212 81.3439 861.764 82.0047C863.315 82.6655 864.996 82.9815 866.82 82.9815C868.645 82.9815 870.325 82.6511 871.877 82.0047C873.428 81.3439 874.793 80.4389 875.957 79.2609C877.134 78.083 878.04 76.7183 878.7 75.1525C879.361 73.5867 879.677 71.9059 879.677 70.0815C879.677 68.2572 879.361 66.5908 878.715 65.0537V65.0393ZM877.436 74.5922C876.862 76.0144 876.043 77.2354 874.98 78.2841C873.931 79.3328 872.696 80.1372 871.317 80.7406C869.923 81.3295 868.415 81.6312 866.792 81.6312C865.168 81.6312 863.703 81.3439 862.31 80.7549C860.916 80.1803 859.709 79.3615 858.675 78.2985C857.641 77.2354 856.836 76.0288 856.262 74.6353C855.673 73.2419 855.385 71.7479 855.385 70.1534C855.385 68.5588 855.673 67.0217 856.262 65.6427C856.836 64.2636 857.641 63.0426 858.675 61.9939C859.709 60.9452 860.916 60.1264 862.324 59.5374C863.732 58.9628 865.24 58.6612 866.863 58.6612C868.487 58.6612 870.024 58.9485 871.417 59.5087C872.811 60.0833 874.017 60.8878 875.052 61.9221C876.086 62.9564 876.876 64.1774 877.451 65.5565C878.025 66.9356 878.298 68.4439 878.298 70.0672C878.298 71.6904 878.011 73.1701 877.422 74.5922H877.436Z" fill="#D8D9F2"/>
<defs>
<linearGradient id="paint0_linear_150_2546" x1="-0.00570567" y1="101.628" x2="203.708" y2="101.628" gradientUnits="userSpaceOnUse">
<stop stop-color="#4EBECC"/>
<stop offset="1" stop-color="#4799D1"/>
</linearGradient>
<linearGradient id="paint1_linear_150_2546" x1="574.311" y1="111.439" x2="638.984" y2="111.439" gradientUnits="userSpaceOnUse">
<stop stop-color="#4EBECC"/>
<stop offset="1" stop-color="#4799D1"/>
</linearGradient>
</defs>
</svg>
